<svg xmlns="http://www.w3.org/2000/svg" viewBox="0 0 800 800">
    <path
        d=" M 677.676 142.225 C 625.891 117.996 570.519 100.388 512.63 90.361 C 505.52 103.215 497.214 120.503 491.488 134.256 C 429.95 125.002 368.978 125.002 308.572 134.256 C 302.846 120.503 294.352 103.215 287.179 90.361 C 229.227 100.388 173.792 118.061 122.006 142.354 C 17.555 300.194 -10.76 454.114 3.397 605.848 C 72.675 657.583 139.814 689.01 205.819 709.575 C 222.116 687.146 236.651 663.303 249.173 638.174 C 225.325 629.113 202.484 617.93 180.902 604.948 C 186.628 600.707 192.229 596.272 197.639 591.709 C 329.273 653.277 472.297 653.277 602.358 591.709 C 607.832 596.272 613.432 600.707 619.095 604.948 C 597.449 617.994 574.546 629.176 550.699 638.239 C 563.22 663.303 577.692 687.21 594.052 709.639 C 660.121 689.074 727.322 657.647 796.6 605.848 C 813.212 429.949 768.222 277.443 677.676 142.225 Z  M 267.106 512.533 C 227.591 512.533 195.185 475.643 195.185 430.72 C 195.185 385.797 226.899 348.844 267.106 348.844 C 307.314 348.844 339.719 385.733 339.027 430.72 C 339.089 475.643 307.314 512.533 267.106 512.533 Z  M 532.891 512.533 C 493.376 512.533 460.971 475.643 460.971 430.72 C 460.971 385.797 492.683 348.844 532.891 348.844 C 573.098 348.844 605.504 385.733 604.812 430.72 C 604.812 475.643 573.098 512.533 532.891 512.533 Z "
        fill="white" />
</svg>