<svg xmlns="http://www.w3.org/2000/svg" viewBox="0 0 1000 941.459">

    <path d=" M 0 0 L 1000 0 L 1000 941.459 L 0 941.459 L 0 0 Z " fill="rgb(208,50,43)" />
    <linearGradient id="_lgradient_0" x1="0.5" y1="1"
        x2="0.5" y2="0.63"
        gradientTransform="matrix(1000,0,0,356.198,0,585.261)" gradientUnits="userSpaceOnUse">
        <stop offset="0%" stop-opacity="1" style="stop-color:rgb(18,20,21)" />
        <stop offset="100%" stop-opacity="1" style="stop-color:rgb(54,17,19)" />
    </linearGradient>
    <path
        d=" M 480.763 588.026 C 483.19 589.651 485.348 589.669 488.166 589.772 Q 508.526 590.518 996.733 589.908 C 997.669 588.941 999.805 586.64 1000 585.261 L 1000 941.459 L 0 941.459 L 0.256 920 Q 45.914 891.155 49.582 888.64 L 75.221 870.971 L 162.871 810.035 L 480.763 588.026 Z "
        fill="url(#_lgradient_0)" />
    <linearGradient id="_lgradient_1" x1="0.5" y1="1"
        x2="0.5" y2="0.66"
        gradientTransform="matrix(848.762,0,0,284.483,0,307.028)" gradientUnits="userSpaceOnUse">
        <stop offset="0%" stop-opacity="1" style="stop-color:rgb(94,22,22)" />
        <stop offset="100%" stop-opacity="1" style="stop-color:rgb(156,34,32)" />
    </linearGradient>
    <path
        d=" M 0.256 307.028 C 1.124 308.483 0.845 310.601 0.832 312.268 L 588.352 312.164 L 769.4 312.148 L 821.367 312.187 C 830.376 312.234 839.817 313.065 848.762 312.242 C 822.191 329.649 793.918 345.115 766.416 361.001 L 635.552 436.376 C 549.664 485.53 465.28 537.265 382.515 591.511 L 381.516 590.391 C 375.954 589.546 369.796 589.983 364.158 589.973 L 332.507 589.963 L 224.538 589.923 L 73.421 589.97 L 27.761 589.916 C 18.747 589.905 8.968 589.468 0 590.357 L 0.256 307.028 Z "
        fill="url(#_lgradient_1)" />
    <linearGradient id="_lgradient_2" x1="0.5" y1="1"
        x2="0.5" y2="0.3"
        gradientTransform="matrix(519.237,0,0,367.851,480.763,222.299)"
        gradientUnits="userSpaceOnUse">
        <stop offset="0%" stop-opacity="1" style="stop-color:rgb(91,22,22)" />
        <stop offset="100%" stop-opacity="1" style="stop-color:rgb(172,37,35)" />
    </linearGradient>
    <path
        d=" M 961.353 246.593 C 961.459 246.441 961.542 246.268 961.672 246.135 C 962.723 245.072 993.466 223.692 995.113 222.844 C 996.13 222.319 998.882 222.316 1000 222.299 L 1000 589.973 L 661.394 589.898 L 549.474 589.918 C 529.098 589.931 508.526 590.518 488.166 589.772 C 485.348 589.669 483.19 589.651 480.763 588.026 C 493.294 578.463 506.785 570.184 519.368 560.683 C 525.414 556.966 531.206 552.402 537.015 548.302 L 570.845 524.443 C 609.807 496.936 648.585 469.171 687.18 441.151 C 706.204 429.085 724.159 414.547 742.45 401.355 L 820.421 345.477 C 843.388 328.979 866.354 312.158 889.945 296.568 C 913.143 279.18 937.602 263.236 961.353 246.593 Z "
        fill="url(#_lgradient_2)" />
    <path
        d=" M 961.353 246.593 C 961.104 247.593 961.139 248.617 960.228 249.183 C 960.012 249.316 959.785 249.431 959.564 249.558 C 953.544 252.997 947.724 257.642 942.011 261.619 L 904.817 287.62 C 900.39 290.687 895.729 294.925 891.04 297.386 L 889.945 296.568 C 913.143 279.18 937.602 263.236 961.353 246.593 Z "
        fill="rgb(132,20,20)" />
    <linearGradient id="_lgradient_3" x1="0.5" y1="1" x2="0.5"
        y2="0.29" gradientTransform="matrix(382.515,0,0,281.172,0,589.799)"
        gradientUnits="userSpaceOnUse">
        <stop offset="0%" stop-opacity="1" style="stop-color:rgb(30,20,20)" />
        <stop offset="100%" stop-opacity="1" style="stop-color:rgb(54,17,19)" />
    </linearGradient>
    <path
        d=" M 0 590.357 C 8.968 589.468 18.747 589.905 27.761 589.916 L 73.421 589.97 L 224.538 589.923 L 332.507 589.963 L 364.158 589.973 C 369.796 589.983 375.954 589.546 381.516 590.391 L 382.515 591.511 C 281.522 660.489 182.353 732.098 85.107 806.265 C 68.18 819.236 51.342 832.324 34.596 845.527 Q 28.093 850.679 0 870.971 L 0 590.357 Z "
        fill="url(#_lgradient_3)" />
    <path
        d=" M 519.368 560.683 L 519.662 559.496 C 524.104 555.045 535.195 548.203 540.846 544.143 L 603.031 500.235 C 625.071 484.517 646.807 468.292 669.135 453.008 C 674.865 449.085 680.287 443.998 686.431 440.778 L 687.18 441.151 C 648.585 469.171 609.807 496.936 570.845 524.443 L 537.015 548.302 C 531.206 552.402 525.414 556.966 519.368 560.683 Z "
        fill="rgb(218,88,98)" />
</svg>