<svg xmlns="http://www.w3.org/2000/svg" viewBox="0 0 998.516 941.459">

    <path
        d=" M 0.256 307.028 L 0.104 179.568 L 0.073 142.868 C 0.068 129.597 -0.641 115.938 2.469 102.938 C 8.511 77.682 21.521 55.543 39.708 37.132 C 63.671 12.874 99.26 0.123 132.927 0 L 663.606 0.163 L 809.22 0.053 L 850.626 0.035 C 863.737 0.043 876.99 -0.238 889.971 1.929 C 916.989 6.437 940.95 20.386 960.123 39.575 C 982.174 61.43 995.613 90.495 997.981 121.449 C 998.961 134.03 998.3 147.062 998.266 159.691 L 998.228 222.299 L 997.858 585.261 L 997.931 721.721 L 997.872 781.501 C 997.848 792.313 998.436 803.682 997.341 814.428 C 996.316 824.495 994.118 834.695 991.357 844.427 C 985.158 866.28 971.402 888.31 955.408 904.327 C 935.52 924.245 909.877 935.506 882.415 939.98 C 872.896 941.531 863.087 941.056 853.472 941.061 L 815.019 941.069 L 687.867 941.255 L 273.635 941.459 L 188.945 941.004 L 148.385 940.852 C 140.295 940.814 131.967 941.131 123.92 940.296 C 95.256 937.325 63.222 922.663 42.932 902.296 C 41.145 900.501 39.395 898.602 38.059 896.437 C 28.857 885.626 21.576 873.94 15.257 861.25 C 10.228 848.939 4.686 835.465 2.639 822.283 C 0.321 807.35 0.512 792.471 0.536 777.423 L 0.592 735.413 L 0.48 590.357 L 0.256 307.028 Z "
        fill="rgb(208,50,43)" />
    <linearGradient id="_lgradient_0" x1="0.5" y1="1"
        x2="0.5" y2="0.63"
        gradientTransform="matrix(959.95,0,0,356.198,38.059,585.261)"
        gradientUnits="userSpaceOnUse">
        <stop offset="0%" stop-opacity="1" style="stop-color:rgb(18,20,21)" />
        <stop offset="100%" stop-opacity="1" style="stop-color:rgb(54,17,19)" />
    </linearGradient>
    <path
        d=" M 480.763 588.026 C 483.19 589.651 485.348 589.669 488.166 589.772 C 508.526 590.518 529.098 589.931 549.474 589.918 L 661.394 589.898 L 996.733 589.908 C 997.669 588.941 997.663 586.64 997.858 585.261 L 997.931 721.721 L 997.872 781.501 C 997.848 792.313 998.436 803.682 997.341 814.428 C 996.316 824.495 994.118 834.695 991.357 844.427 C 985.158 866.28 971.402 888.31 955.408 904.327 C 935.52 924.245 909.877 935.506 882.415 939.98 C 872.896 941.531 863.087 941.056 853.472 941.061 L 815.019 941.069 L 687.867 941.255 L 273.635 941.459 L 188.945 941.004 L 148.385 940.852 C 140.295 940.814 131.967 941.131 123.92 940.296 C 95.256 937.325 63.222 922.663 42.932 902.296 C 41.145 900.501 39.395 898.602 38.059 896.437 C 42.027 894.482 45.914 891.155 49.582 888.64 L 75.221 870.971 L 162.871 810.035 L 480.763 588.026 Z "
        fill="url(#_lgradient_0)" />
    <linearGradient id="_lgradient_1" x1="0.5" y1="1"
        x2="0.5" y2="0.66"
        gradientTransform="matrix(848.506,0,0,284.482,0.256,307.028)"
        gradientUnits="userSpaceOnUse">
        <stop offset="0%" stop-opacity="1" style="stop-color:rgb(94,22,22)" />
        <stop offset="100%" stop-opacity="1" style="stop-color:rgb(156,34,32)" />
    </linearGradient>
    <path
        d=" M 0.256 307.028 C 1.124 308.483 0.845 310.601 0.832 312.268 L 588.352 312.164 L 769.4 312.148 L 821.367 312.187 C 830.376 312.234 839.817 313.065 848.762 312.242 C 822.191 329.649 793.918 345.115 766.416 361.001 L 635.552 436.376 C 549.664 485.53 465.28 537.265 382.515 591.511 L 381.516 590.391 C 375.954 589.546 369.796 589.983 364.158 589.973 L 332.507 589.963 L 224.538 589.923 L 73.421 589.97 L 27.761 589.916 C 18.747 589.905 9.448 589.468 0.48 590.357 L 0.256 307.028 Z "
        fill="url(#_lgradient_1)" />
    <linearGradient id="_lgradient_2" x1="0.5" y1="1"
        x2="0.5" y2="0.3"
        gradientTransform="matrix(517.465,0,0,367.85,480.763,222.299)"
        gradientUnits="userSpaceOnUse">
        <stop offset="0%" stop-opacity="1" style="stop-color:rgb(91,22,22)" />
        <stop offset="100%" stop-opacity="1" style="stop-color:rgb(172,37,35)" />
    </linearGradient>
    <path
        d=" M 961.353 246.593 C 961.459 246.441 961.542 246.268 961.672 246.135 C 962.723 245.072 993.466 223.692 995.113 222.844 C 996.13 222.319 997.11 222.316 998.228 222.299 L 997.858 585.261 C 997.663 586.64 997.669 588.941 996.733 589.908 L 661.394 589.898 L 549.474 589.918 C 529.098 589.931 508.526 590.518 488.166 589.772 C 485.348 589.669 483.19 589.651 480.763 588.026 C 493.294 578.463 506.785 570.184 519.368 560.683 C 525.414 556.966 531.206 552.402 537.015 548.302 L 570.845 524.443 C 609.807 496.936 648.585 469.171 687.18 441.151 C 706.204 429.085 724.159 414.547 742.45 401.355 L 820.421 345.477 C 843.388 328.979 866.354 312.158 889.945 296.568 C 913.143 279.18 937.602 263.236 961.353 246.593 Z "
        fill="url(#_lgradient_2)" />
    <path
        d=" M 961.353 246.593 C 961.104 247.593 961.139 248.617 960.228 249.183 C 960.012 249.316 959.785 249.431 959.564 249.558 C 953.544 252.997 947.724 257.642 942.011 261.619 L 904.817 287.62 C 900.39 290.687 895.729 294.925 891.04 297.386 L 889.945 296.568 C 913.143 279.18 937.602 263.236 961.353 246.593 Z "
        fill="rgb(132,20,20)" />
    <linearGradient id="_lgradient_3" x1="0.5" y1="1"
        x2="0.5" y2="0.29"
        gradientTransform="matrix(382.035,0,0,271.451,0.48,589.799)"
        gradientUnits="userSpaceOnUse">
        <stop offset="0%" stop-opacity="1" style="stop-color:rgb(30,20,20)" />
        <stop offset="100%" stop-opacity="1" style="stop-color:rgb(54,17,19)" />
    </linearGradient>
    <path
        d=" M 0.48 590.357 C 9.448 589.468 18.747 589.905 27.761 589.916 L 73.421 589.97 L 224.538 589.923 L 332.507 589.963 L 364.158 589.973 C 369.796 589.983 375.954 589.546 381.516 590.391 L 382.515 591.511 C 281.522 660.489 182.353 732.098 85.107 806.265 C 68.18 819.236 51.342 832.324 34.596 845.527 C 28.093 850.679 21.854 856.238 15.257 861.25 C 10.228 848.939 4.686 835.465 2.639 822.283 C 0.321 807.35 0.512 792.471 0.536 777.423 L 0.592 735.413 L 0.48 590.357 Z "
        fill="url(#_lgradient_3)" />
    <path
        d=" M 519.368 560.683 L 519.662 559.496 C 524.104 555.045 535.195 548.203 540.846 544.143 L 603.031 500.235 C 625.071 484.517 646.807 468.292 669.135 453.008 C 674.865 449.085 680.287 443.998 686.431 440.778 L 687.18 441.151 C 648.585 469.171 609.807 496.936 570.845 524.443 L 537.015 548.302 C 531.206 552.402 525.414 556.966 519.368 560.683 Z "
        fill="rgb(218,88,98)" />
</svg>